# xmcd CD database file
#
# Track frame offsets:
#	150
#	23290
#	34827
#
# Disc length: 704 seconds
#
# Revision: 0
# Processed by: cddbd v1.5.1PL0 Copyright (c) Steve Scherf et al.
# Submitted via: CDex 1.51
#
DISCID=1402be03
DTITLE=FIELD OF VIEW - Beautiful day
DYEAR=2000
DGENRE=JPop
TTITLE0=Beautiful day
TTITLE1=SNOW FIELD
TTITLE2=Holiday
EXTD=YEAR: 2000
EXTT0=
EXTT1=
EXTT2=
PLAYORDER=
